<svg width="32" height="32" viewBox="0 0 32 32" fill="none" xmlns="http://www.w3.org/2000/svg">
  <rect width="32" height="32" rx="8" fill="#D97706"/>
  <path d="M8 12h16v12c0 1.1-.9 2-2 2H10c-1.1 0-2-.9-2-2V12z" fill="#FBBF24"/>
  <path d="M24 14v4c1.1 0 2-.9 2-2s-.9-2-2-2z" fill="#F59E0B"/>
  <path d="M10 8h12v4H10V8z" fill="#FBBF24"/>
  <circle cx="13" cy="10" r="0.5" fill="#D97706"/>
  <circle cx="16" cy="10" r="0.5" fill="#D97706"/>
  <circle cx="19" cy="10" r="0.5" fill="#D97706"/>
  <path d="M12 18c0-1 1-2 2-2s2 1 2 2" stroke="#D97706" stroke-width="1" fill="none"/>
  <path d="M16 18c0-1 1-2 2-2s2 1 2 2" stroke="#D97706" stroke-width="1" fill="none"/>
</svg>